<svg width="32" height="32" viewBox="1.5,27.75,34,34"><defs><linearGradient x1="0" y1="0.5" x2="1" y2="0.5" id="linearGradientSjiy8g3kokn"><stop offset="0%" stop-color="#f79999"></stop><stop offset="100%" stop-color="#f79999"></stop></linearGradient></defs><g><path d="M6.5,32.75v24h24v-24h-12H6.5z M18.9482422,37.012207l2.3261719,4.7128906l5.2011719,0.7558594    c0.1884766,0.0273438,0.3447266,0.1591797,0.4038086,0.340332c0.0585938,0.1806641,0.0097656,0.3793945-0.1264648,0.512207    l-3.7641602,3.6689453l0.8886719,5.1801758c0.0322266,0.1875-0.0449219,0.3769531-0.1987305,0.4887695    c-0.0869141,0.0634766-0.1904297,0.0957031-0.2939453,0.0957031c-0.0795898,0-0.159668-0.019043-0.2329102-0.0576172    L18.5,50.2636719l-4.6518555,2.4458008c-0.168457,0.0888672-0.3720703,0.074707-0.5268555-0.0380859    c-0.1538086-0.1118164-0.230957-0.3012695-0.1987305-0.4887695l0.8886719-5.1801758l-3.7641602-3.6689453    c-0.1362305-0.1328125-0.1850586-0.331543-0.1264648-0.512207c0.059082-0.1811523,0.215332-0.3129883,0.4038086-0.340332    l5.2011719-0.7558594l2.3261719-4.7128906C18.2197266,36.6704102,18.7802734,36.6704102,18.9482422,37.012207z" fill="url('#linearGradientSjiy8g3kokn')"></path></g></svg>